<svg width="107" height="23" viewBox="0 0 107 23" fill="none" xmlns="http://www.w3.org/2000/svg">
<path d="M0 0.835702L10.7961 21.8414H15.8196L20.8257 10.3309L26.0524 21.8414H31.012L41.9765 0.864739H33.7822L28.4683 12.2416L23.23 0.853124H18.5898L13.3456 11.8815L8.32213 0.887969L0 0.835702Z" fill="black"/>
<path d="M58.6498 0.789242V2.82186C58.0981 2.26434 57.2328 1.5326 56.0248 0.980889C52.2558 -0.75555 48.5738 0.783434 47.9699 1.05058C46.669 1.61971 45.7049 2.38049 45.0893 2.96124C44.8164 3.21677 43.7943 4.20985 42.9464 5.84176C41.5874 8.46093 41.5932 10.9756 41.6745 12.1487C41.7384 13.0779 42.0114 15.4822 43.5678 17.8575C44.4563 19.2164 45.3913 20.0004 45.6178 20.1863C45.9314 20.4418 46.8316 21.1503 48.1905 21.702C50.6645 22.7067 53.4405 22.7125 55.4093 21.9401C56.2455 21.6149 56.9482 21.1445 56.9889 21.1154C57.7671 20.587 58.3072 20.0178 58.6498 19.6055C58.6498 20.3489 58.6498 21.098 58.6498 21.8414C61.1703 21.8414 63.6849 21.8414 66.2054 21.8414C66.2054 14.8201 66.2054 7.79888 66.2054 0.777627H58.6556L58.6498 0.789242ZM58.9402 11.5273C58.8589 13.8271 57.1341 15.1163 56.925 15.2615C56.5475 15.5054 55.5312 16.092 54.1084 16.0862C52.6797 16.0746 51.6692 15.4706 51.2917 15.2209C51.0885 15.0699 49.3695 13.7457 49.3288 11.4111C49.2882 8.9778 51.1117 7.57239 51.2917 7.43882C51.6518 7.1949 52.6739 6.56189 54.12 6.56769C55.5486 6.56769 56.5533 7.18909 56.9192 7.43882C57.076 7.54916 59.0331 9.01265 58.9402 11.5273Z" fill="black"/>
<path d="M86.2877 0.789242V2.82186C85.736 2.26434 84.8648 1.5326 83.6569 0.980889C79.8878 -0.75555 76.2117 0.783434 75.6019 1.05058C74.301 1.61971 73.3428 2.38049 72.7214 2.96124C72.4484 3.21677 71.4263 4.20985 70.5784 5.84176C69.2195 8.46093 69.2253 10.9756 69.3008 12.1487C69.3646 13.0779 69.6376 15.4822 71.194 17.8575C72.0825 19.2164 73.0176 20.0004 73.244 20.1863C73.5577 20.4418 74.4578 21.1503 75.8168 21.702C78.2908 22.7067 81.0667 22.7125 83.0355 21.9401C83.8717 21.6149 84.5745 21.1445 84.6151 21.1154C85.3933 20.587 85.9334 20.0178 86.276 19.6055C86.276 20.3489 86.2761 21.098 86.2702 21.8414C88.7907 21.8414 91.3053 21.8414 93.8258 21.8414C93.8258 14.8201 93.8258 7.79888 93.8258 0.777627H86.276L86.2877 0.789242ZM86.6187 11.5273C86.5374 13.8271 84.8126 15.1163 84.6035 15.2615C84.226 15.5054 83.2097 16.092 81.7869 16.0862C80.3582 16.0746 79.3477 15.4706 78.9702 15.2209C78.767 15.0699 77.048 13.7457 77.0131 11.4111C76.9725 8.9778 78.796 7.57239 78.976 7.43882C79.3361 7.1949 80.3582 6.56189 81.8043 6.56769C83.2329 6.56769 84.2376 7.18909 84.5977 7.43882C84.7545 7.54916 86.7116 9.01265 86.6187 11.5273Z" fill="black"/>
<path d="M99.3487 21.7601C99.7262 22.0098 100.737 22.6138 102.165 22.6254C103.588 22.6312 104.604 22.0446 104.982 21.8007C105.191 21.6497 106.916 20.3663 106.997 18.0665C107.084 15.5519 105.133 14.0884 104.976 13.978C104.616 13.7341 103.611 13.1127 102.183 13.1069C100.737 13.1069 99.7146 13.7283 99.3545 13.978C99.1745 14.1116 97.3509 15.517 97.3916 17.9504C97.4322 20.2792 99.1454 21.6091 99.3487 21.7601Z" fill="black"/>
</svg>
